<svg xmlns="http://www.w3.org/2000/svg" viewBox="0 0 24 24" width="24" height="24" fill="current">
    <path fill-rule="evenodd" clip-rule="evenodd"  d="M2.37,6.4A4.81,4.81,0,0,1,6.54,2.23,42,42,0,0,1,12,1.86a42,42,0,0,1,5.46.37A4.8,4.8,0,0,1,21.63,6.4,42,42,0,0,1,22,11.86a41.82,41.82,0,0,1-.37,5.45,4.81,4.81,0,0,1-4.17,4.18,42,42,0,0,1-5.46.37,42,42,0,0,1-5.46-.37,4.82,4.82,0,0,1-4.17-4.18A41.82,41.82,0,0,1,2,11.86,42,42,0,0,1,2.37,6.4ZM9,19.86a1,1,0,0,1-1-1v-2a1,1,0,0,0-1-1H5a1,1,0,0,1,0-2H7a3,3,0,0,1,3,3v2A1,1,0,0,1,9,19.86Zm7-1a1,1,0,0,1-2,0v-2a3,3,0,0,1,3-3h2a1,1,0,0,1,0,2H17a1,1,0,0,0-1,1Zm-7-15a1,1,0,0,0-1,1v2a1,1,0,0,1-1,1H5a1,1,0,0,0,0,2H7a3,3,0,0,0,3-3v-2A1,1,0,0,0,9,3.86Zm7,1a1,1,0,1,0-2,0v2a3,3,0,0,0,3,3h2a1,1,0,1,0,0-2H17a1,1,0,0,1-1-1Z" fill="#777E91" />
</svg>