<svg xmlns="http://www.w3.org/2000/svg" viewBox="0 0 24 24">
    <path d="M16,4a1,1,0,0,0,0,2,6,6,0,0,1,0,12,1,1,0,0,0,0,2A8,8,0,0,0,16,4Z" fill="#555a66"/>
    <path d="M16,8a1,1,0,0,0,0,2,2,2,0,0,1,0,4,1,1,0,0,0,0,2,4,4,0,0,0,0-8Z" fill="#555a66"/>
    <path d="M5,9,9.63,4.66A2,2,0,0,1,13,6.12V17.88a2,2,0,0,1-3.37,1.46L5,15H2a2,2,0,0,1-2-2V11A2,2,0,0,1,2,9Z" fill="#555a66"/>
    <rect x="-1.5" y="11.29" width="28" height="2" rx="1" transform="translate(12.17 -7.21) rotate(45)" fill="#777e91"/>
</svg>