<?xml version="1.0" standalone="no"?>
<!DOCTYPE svg PUBLIC "-//W3C//DTD SVG 20010904//EN"
 "http://www.w3.org/TR/2001/REC-SVG-20010904/DTD/svg10.dtd">
<svg version="1.0" xmlns="http://www.w3.org/2000/svg"
 width="700.000000pt" height="700.000000pt" viewBox="0 0 700.000000 700.000000"
 preserveAspectRatio="xMidYMid meet">
<metadata>
Created by potrace 1.14, written by Peter Selinger 2001-2017
</metadata>
<g transform="translate(0.000000,700.000000) scale(0.100000,-0.100000)"
fill="#000000" stroke="none">
<path d="M1449 5163 c-1 -4 -2 -774 -3 -1711 l-1 -1703 725 4 c399 2 734 6
745 9 11 3 45 9 75 13 365 46 734 220 975 460 121 120 134 136 207 245 94 142
194 376 222 515 38 196 50 307 49 470 -1 224 -33 428 -100 618 -38 110 -117
272 -172 352 -19 28 -49 70 -65 95 -17 25 -78 92 -136 150 -221 223 -545 389
-870 446 -14 3 -30 6 -37 9 -6 2 -38 7 -70 10 -32 4 -69 9 -83 13 -39 9 -1460
14 -1461 5z m1153 -574 c303 -3 469 -43 686 -168 37 -21 128 -98 179 -151 80
-82 169 -239 212 -370 74 -225 85 -542 27 -795 -27 -121 -100 -283 -169 -375
-61 -84 -167 -180 -257 -234 -81 -49 -228 -110 -291 -121 -19 -3 -41 -8 -49
-10 -17 -5 -69 -14 -120 -21 -19 -3 -182 -7 -362 -8 l-328 -3 0 1128 0 1128
143 3 c78 2 145 2 148 1 3 -1 84 -3 181 -4z"/>
<path d="M5145 2506 c-106 -26 -214 -107 -262 -196 -59 -108 -61 -267 -3 -380
121 -237 494 -289 685 -95 116 119 146 313 70 465 -43 85 -131 162 -225 195
-58 21 -200 27 -265 11z"/>
</g>
</svg>
