<?xml version="1.0" encoding="UTF-8"?>
<svg width="128px" height="128px" viewBox="0 0 128 128" version="1.1" xmlns="http://www.w3.org/2000/svg" xmlns:xlink="http://www.w3.org/1999/xlink">
    <g id="Artboard" stroke="none" stroke-width="1" fill="none" fillRule="evenodd">
        <g id="Emojione_BW_1F40B" transform="translate(13.000000, 21.000000)" fill="#2e3239" fillRule="nonzero">
            <path d="M50,34.0819936 C50,32.3745981 48.6559486,31 46.9983923,31 C45.340836,31 44,32.3745981 44,34.0819936 C44,34.8086817 44.255627,35.4710611 44.6688103,36 C46.2363344,35.4549839 48.5209003,34.7540193 49.9340836,34.7202572 C49.977492,34.5144695 50,34.3006431 50,34.0819936" id="Path"></path>
            <path d="M47,37.4248841 C48.334325,37.8640645 50.3299675,37.8210809 50.744126,41 C51.534033,38.4882615 50.5520767,35.9783918 47,37.4248841" id="Path"></path>
            <path d="M98.9469077,9.16600129e-15 C97.3212074,9.16600129e-15 96.1624453,0.92364 94.819998,1.99348 C92.9711287,3.4658 90.4373023,5.48336 86.8374147,5.48336 C84.8391939,5.48336 82.6504211,4.04888 80.8891027,2.89648 C79.2101852,1.79568 77.7613034,0.84796 76.0583523,0.84796 C74.4721358,0.84796 72.413831,1.79912 71.8335916,4.4806 C71.0456333,8.1184 73.5107924,11.868 75.0472251,13.77892 C75.6429146,14.52024 76.3347385,15.27188 77.0952298,15.98224 C68.5856244,18.80648 49.2162723,23.09272 10.0483971,23.09272 C3.17307537,23.09272 0.687316104,29.76976 0.325095659,33.3422 C0.251278223,33.95968 -0.3804617,39.48776 0.345695874,44.11972 C2.85548872,60.20688 15.5366377,77.4 43.5992804,77.4 C44.6687749,77.4 45.6816188,77.38968 46.6566956,77.37076 C48.2909793,80.5992 50.4797522,82.89884 52.51059,82.4396 C54.2444414,82.04572 55.514788,79.71512 56.2357955,76.71888 C57.174822,76.5916 58.040031,76.4368 58.8743397,76.26824 C61.2227642,81.49876 64.8604188,86 69.3701492,86 C69.8525376,86 70.3332093,85.94668 70.8001475,85.84004 C77.4746171,84.32988 79.7234739,73.06732 78.9887329,64.50344 C90.2965342,53.3286 93.2835653,27.89668 93.9359055,20.19624 C101.916772,16.44836 103,10.3114 103,5.25976 C103,0.38012 99.897951,0 98.9469077,0 M43.5992804,73.96 C15.7340564,73.96 5.7618357,56.56564 3.73614791,43.58652 C3.04947408,39.20396 3.73614791,33.72404 3.73614791,33.72404 L3.73614791,33.7206 C4.49663917,33.7034 5.25713044,33.68448 6.01590502,33.67072 C6.06053882,38.8978 6.95149811,44.25216 8.88105157,49.15416 C10.8140384,54.14904 13.8542868,58.69844 17.7271272,62.29324 C21.5828007,65.91384 26.1903821,68.58328 31.0297159,70.42024 C35.8776332,72.27096 40.9573028,73.35112 46.055856,73.94108 C45.2610311,73.94968 44.461056,73.96 43.5992804,73.96 M46.0575727,73.93764 C40.9916365,73.09656 35.9960844,71.77044 31.3146856,69.71332 C26.6367201,67.66996 22.2917915,64.844 18.7725881,61.19932 C15.2362179,57.57528 12.5856569,53.14284 10.9942903,48.36296 C9.39949031,43.62952 8.80895082,38.65356 9.00980292,33.62428 C10.7367876,33.60708 12.4620556,33.62256 14.1838902,33.67244 C13.9830381,39.60988 15.3666859,45.5112 17.9983633,50.71076 C20.6935581,56.04964 24.7140334,60.63688 29.5053,64.02184 C34.2931333,67.42744 39.7985407,69.64968 45.451583,70.8038 C49.3381569,71.6122 53.2899648,71.89256 57.2314726,71.83924 C57.3464905,72.22624 57.4735251,72.61324 57.6039931,73.00196 C54.6118119,73.55752 50.9449737,73.86368 46.0575727,73.93764 M27.2667434,50.9378 C30.2469078,56.04964 34.5334692,60.2774 39.4861041,63.27536 C44.4387391,66.28192 50.078048,68.06728 55.7877409,68.40612 C55.988593,68.41816 56.189445,68.41128 56.3937305,68.41988 C56.5894326,69.445 56.8452186,70.51312 57.1610885,71.60188 C53.2607812,71.47804 49.381074,71.02224 45.6146681,70.0642 C40.1023939,68.68132 34.8459057,66.26816 30.3945426,62.79548 C25.9363128,59.34 22.3312752,54.81812 20.0240511,49.71316 C17.7683276,44.7286 16.7451836,39.1988 17.1657713,33.81348 C19.0815913,33.93216 20.9888279,34.10932 22.882331,34.36732 C22.7913467,40.20156 24.3672631,46.0014 27.2667434,50.9378 M25.8470452,34.85752 C26.1560484,34.91428 26.4667683,34.96072 26.7740549,35.02608 C28.319071,35.33224 29.8297534,35.75364 31.3215523,36.23524 C31.3455859,44.1782 36.0990855,52.73864 43.7469153,58.58492 C47.4686874,61.4298 51.5818637,63.41468 55.933659,64.55848 C55.9714261,65.38236 56.0418102,66.24236 56.1774283,67.16944 C56.2014618,67.33628 56.2375122,67.51172 56.2649792,67.682 C56.1276444,67.66824 55.9868763,67.66652 55.8478248,67.65104 C50.2840501,67.06968 44.9056773,65.08308 40.2860792,61.99052 C35.6699143,58.90312 31.7970739,54.70116 29.2323472,49.82152 C26.7929384,45.21364 25.6101427,39.9986 25.8470452,34.85752 M90.6639047,17.83296 C90.5162698,22.07276 88.1575452,47.95016 78.2814588,60.14324 L78.2814588,60.14152 C77.2119643,61.46248 76.2059872,62.43428 75.3785452,63.11196 C76.5252905,70.993 74.4103351,81.49704 70.0465229,82.48604 C69.8233539,82.5342 69.5984683,82.56 69.3701492,82.56 C65.1831555,82.56 60.663125,74.14576 59.5730303,66.66892 C59.4013619,65.50104 59.3344112,64.4312 59.3412779,63.43704 C58.616837,63.36652 57.969647,63.26504 57.397991,63.15496 C52.8796772,62.11608 48.613716,60.14496 44.7872261,57.21752 C37.7471027,51.83392 33.3111897,44.07844 33.0605538,36.82692 C34.6193034,37.39796 36.1643195,38.03264 37.6887354,38.743 C39.4672206,39.50668 41.261156,40.50256 43.3503611,40.69176 C45.4721833,40.82248 47.3519529,39.75264 48.8231515,38.49532 C47.1528175,39.48604 45.2730478,40.3168 43.4310453,39.95044 C41.6027762,39.65288 39.9272921,38.60024 38.196874,37.69208 C34.7497714,35.78116 30.9644819,34.33808 27.0744747,33.54172 C23.1827508,32.7488 19.2206428,32.44264 15.284285,32.54068 C11.4028612,32.62324 7.54032092,33.00508 3.73614791,33.70168 C3.76533154,33.42992 4.53955629,26.53788 10.043247,26.53788 C71.0628002,26.53788 84.8666609,16.33484 84.8666609,16.33484 C80.8204353,16.33484 74.3588346,9.01796 75.1811265,5.21504 C75.3236113,4.55628 75.6223144,4.2914 76.0514856,4.2914 C77.8522877,4.2914 81.9723307,8.9268 86.830548,8.9268 C93.7745371,8.9268 97.5563932,3.44344 98.9417577,3.44344 C99.3692121,3.44 99.5666309,3.94568 99.5666309,5.26148 C99.5666309,10.82912 98.0851321,15.1274 90.6639047,17.83296" id="Shape"></path>
        </g>
    </g>
</svg>